<svg width="44" height="44" viewBox="0 0 44 44" fill="none" xmlns="http://www.w3.org/2000/svg">
<path d="M27.8982 25.8571C28.6259 26.5365 28.4724 27.7461 27.5955 28.2428L26.6944 28.3893L21.3768 28.4508C17.7915 28.4843 16.7142 28.4137 16.494 28.3264L16.487 28.3234C16.0544 28.1349 15.6515 27.6113 15.5819 27.147C15.5156 26.7047 15.7379 26.0967 16.0786 25.7884L16.1544 25.7224C16.4902 25.4465 16.8766 25.3969 20.0447 25.3858L23.7085 25.382C27.3924 25.3847 27.4444 25.4332 27.8909 25.8503L27.8982 25.8571Z" fill="#D9D9D9"/>
<path d="M22.6779 15.8279C23.2426 16.1132 23.488 16.5154 23.488 17.1558C23.488 17.712 23.275 18.1081 22.8016 18.4273L22.7099 18.486C22.4796 18.6234 22.2537 18.6474 20.4683 18.6613L19.3164 18.6679C17.8883 18.6708 16.789 18.6409 16.6133 18.5924C15.6054 18.3146 15.2289 16.8687 15.9696 16.1208L16.0386 16.0524C16.4351 15.6683 16.6873 15.6286 19.0105 15.625L20.7612 15.6264C22.2407 15.6333 22.3589 15.6668 22.6779 15.8279Z" fill="#D9D9D9"/>
<path fill-rule="evenodd" clip-rule="evenodd" d="M2.83837 42.8433C3.49367 43.2906 4.20416 43.6098 5.02756 43.8268C5.63159 43.9861 6.42749 43.9942 21.9244 43.9988C37.9521 44.0037 38.1977 44.0012 38.9036 43.8206C41.6633 43.1147 43.5811 40.9543 43.9208 38.1689C43.9933 37.5737 44.0136 32.796 43.9916 21.4157C43.9624 6.2834 44.0061 5.14015 43.5636 4.23456C43.483 4.06976 43.3864 3.91283 43.2703 3.6809C42.3216 1.78604 40.6822 0.531724 38.5967 0.105094C37.8263 -0.0525015 5.92285 -0.0247124 5.20867 0.134172C2.72476 0.686772 0.798841 2.5391 0.176898 4.97368C0.00103182 5.66211 -0.00261035 6.01436 0.000590633 22.0337C0.00381025 38.1344 0.00671835 38.4015 0.186146 39.0723C0.362062 39.7299 0.793711 40.678 1.16923 41.2317C1.4767 41.685 2.2852 42.4657 2.83837 42.8433ZM28.2456 35.4878C30.3787 35.1968 33.3945 34.4992 34.0288 32.2237C34.1335 31.8481 34.5967 31.4635 34.5714 29.4643C34.5537 28.0608 34.7391 25.8571 34.5714 24.75C34.4037 23.6429 34.2259 23.0557 33.2201 22.135C32.2143 21.2143 31.4081 21.0533 30.1641 20.3242C29.5543 19.9668 30.7147 18.4273 30.7118 16.5991C30.7086 14.5973 29.8756 12.7388 28.2295 11.0614C27.0569 9.86642 25.7487 9.05756 24.2557 8.60433C23.8983 8.49582 23.098 8.4589 20.4173 8.42722C16.2112 8.37752 15.2775 8.46374 13.8456 9.03409C11.2057 10.0856 9.30884 12.3017 8.61692 15.1427C8.48696 15.6763 8.46174 16.5316 8.43104 21.4442C8.39258 27.5987 8.435 28.5024 8.81956 29.7221C9.13729 30.7298 9.45786 31.3473 10.1183 32.2237C11.3764 33.8933 13.2619 35.0992 15.147 35.4397C16.0441 35.6018 27.112 35.6424 28.2456 35.4878Z" fill="#D9D9D9"/>
</svg>
