<svg width="44" height="44" viewBox="0 0 44 44" fill="none" xmlns="http://www.w3.org/2000/svg">
<g clip-path="url(#clip0_32_208)">
<path fill-rule="evenodd" clip-rule="evenodd" d="M0 22.5581C0 32.523 6.30308 40.9785 15.0453 43.9613C16.146 44.1691 16.5471 43.4725 16.5471 42.8743C16.5471 42.3384 16.5282 40.9204 16.5174 39.0384C10.398 40.4011 9.10685 36.0141 9.10685 36.0141C8.10608 33.4079 6.66368 32.7141 6.66368 32.7141C4.6662 31.3141 6.81494 31.3432 6.81494 31.3432C9.02311 31.5024 10.1846 33.6683 10.1846 33.6683C12.1483 37.115 15.3343 36.1193 16.5876 35.5419C16.7875 34.0837 17.3561 33.0908 17.9841 32.5258C13.0991 31.9567 7.96292 30.0221 7.96292 21.3783C7.96292 18.9148 8.82053 16.9013 10.2278 15.324C10.0023 14.7535 9.24731 12.4603 10.4439 9.3556C10.4439 9.3556 12.2915 8.74768 16.4931 11.6668C18.2488 11.1669 20.1301 10.9163 22.0007 10.9079C23.8699 10.9163 25.7512 11.1669 27.5096 11.6668C31.7085 8.74768 33.5534 9.3556 33.5534 9.3556C34.7527 12.4603 33.9977 14.7535 33.7722 15.324C35.1822 16.9013 36.033 18.9148 36.033 21.3783C36.033 30.0429 30.8901 31.9497 25.9889 32.5092C26.779 33.2057 27.4813 34.5822 27.4813 36.6857C27.4813 39.7018 27.4556 42.1348 27.4556 42.8743C27.4556 43.4781 27.8513 44.1788 28.9682 43.9586C37.7023 40.9702 44 32.5216 44 22.5581C44 10.0992 34.149 0 21.998 0C9.85101 0 0 10.0992 0 22.5581Z" fill="#D9D9D9"/>
</g>
<defs>
<clipPath id="clip0_32_208">
<rect width="44" height="44" fill="white"/>
</clipPath>
</defs>
</svg>
