<svg width="24" height="25" viewBox="0 0 24 25" fill="none" xmlns="http://www.w3.org/2000/svg">
<g id="help">
<mask id="mask0_34_648" style="mask-type:alpha" maskUnits="userSpaceOnUse" x="0" y="0" width="24" height="25">
<rect id="Bounding box" y="0.00668335" width="24" height="24" fill="#D9D9D9"/>
</mask>
<g mask="url(#mask0_34_648)">
<path id="help_2" d="M11.95 18.0067C12.3 18.0067 12.5958 17.8858 12.8375 17.6442C13.0792 17.4025 13.2 17.1067 13.2 16.7567C13.2 16.4067 13.0792 16.1109 12.8375 15.8692C12.5958 15.6275 12.3 15.5067 11.95 15.5067C11.6 15.5067 11.3042 15.6275 11.0625 15.8692C10.8208 16.1109 10.7 16.4067 10.7 16.7567C10.7 17.1067 10.8208 17.4025 11.0625 17.6442C11.3042 17.8858 11.6 18.0067 11.95 18.0067ZM12 22.0067C10.6167 22.0067 9.31667 21.7442 8.1 21.2192C6.88333 20.6942 5.825 19.9817 4.925 19.0817C4.025 18.1817 3.3125 17.1234 2.7875 15.9067C2.2625 14.69 2 13.39 2 12.0067C2 10.6234 2.2625 9.32335 2.7875 8.10668C3.3125 6.89002 4.025 5.83168 4.925 4.93168C5.825 4.03168 6.88333 3.31918 8.1 2.79418C9.31667 2.26918 10.6167 2.00668 12 2.00668C13.3833 2.00668 14.6833 2.26918 15.9 2.79418C17.1167 3.31918 18.175 4.03168 19.075 4.93168C19.975 5.83168 20.6875 6.89002 21.2125 8.10668C21.7375 9.32335 22 10.6234 22 12.0067C22 13.39 21.7375 14.69 21.2125 15.9067C20.6875 17.1234 19.975 18.1817 19.075 19.0817C18.175 19.9817 17.1167 20.6942 15.9 21.2192C14.6833 21.7442 13.3833 22.0067 12 22.0067ZM12 20.0067C14.2333 20.0067 16.125 19.2317 17.675 17.6817C19.225 16.1317 20 14.24 20 12.0067C20 9.77335 19.225 7.88168 17.675 6.33168C16.125 4.78168 14.2333 4.00668 12 4.00668C9.76667 4.00668 7.875 4.78168 6.325 6.33168C4.775 7.88168 4 9.77335 4 12.0067C4 14.24 4.775 16.1317 6.325 17.6817C7.875 19.2317 9.76667 20.0067 12 20.0067ZM12.1 7.70668C12.5167 7.70668 12.8792 7.84002 13.1875 8.10668C13.4958 8.37335 13.65 8.70668 13.65 9.10668C13.65 9.47335 13.5375 9.79835 13.3125 10.0817C13.0875 10.365 12.8333 10.6317 12.55 10.8817C12.1667 11.215 11.8292 11.5817 11.5375 11.9817C11.2458 12.3817 11.1 12.8317 11.1 13.3317C11.1 13.565 11.1875 13.7608 11.3625 13.9192C11.5375 14.0775 11.7417 14.1567 11.975 14.1567C12.225 14.1567 12.4375 14.0734 12.6125 13.9067C12.7875 13.74 12.9 13.5317 12.95 13.2817C13.0167 12.9317 13.1667 12.6192 13.4 12.3442C13.6333 12.0692 13.8833 11.8067 14.15 11.5567C14.5333 11.19 14.8625 10.79 15.1375 10.3567C15.4125 9.92335 15.55 9.44002 15.55 8.90668C15.55 8.05668 15.2042 7.36085 14.5125 6.81918C13.8208 6.27752 13.0167 6.00668 12.1 6.00668C11.4667 6.00668 10.8625 6.14002 10.2875 6.40668C9.7125 6.67335 9.275 7.08168 8.975 7.63168C8.85833 7.83168 8.82083 8.04418 8.8625 8.26918C8.90417 8.49418 9.01667 8.66502 9.2 8.78168C9.43333 8.91502 9.675 8.95668 9.925 8.90668C10.175 8.85668 10.3833 8.71502 10.55 8.48168C10.7333 8.23168 10.9625 8.04002 11.2375 7.90668C11.5125 7.77335 11.8 7.70668 12.1 7.70668Z" fill="#006B5A"/>
</g>
</g>
</svg>
